<svg id="visual" viewBox="0 0 900 600" width="900" height="600" xmlns="http://www.w3.org/2000/svg" xmlns:xlink="http://www.w3.org/1999/xlink" version="1.1"><path d="M674 600L654.5 550C635 500 596 400 612.5 300C629 200 701 100 737 50L773 0L900 0L900 50C900 100 900 200 900 300C900 400 900 500 900 550L900 600Z" fill="#fc7b98"></path><path d="M395 600L357.5 550C320 500 245 400 293 300C341 200 512 100 597.5 50L683 0L774 0L738 50C702 100 630 200 613.5 300C597 400 636 500 655.5 550L675 600Z" fill="#f02d64"></path><path d="M0 600L0 550C0 500 0 400 0 300C0 200 0 100 0 50L0 0L684 0L598.5 50C513 100 342 200 294 300C246 400 321 500 358.5 550L396 600Z" fill="#b21e48"></path></svg>